<svg xmlns="http://www.w3.org/2000/svg" viewBox="0 0 14.68 14.68"><defs><style>.cls-1{fill:#52aa00;}.cls-2{fill:#fff;}</style></defs><title>CALENDAR ICON</title><g id="Layer_2" data-name="Layer 2"><g id="Layer_1-2" data-name="Layer 1"><circle class="cls-1" cx="7.34" cy="7.34" r="7.34"/><path class="cls-2" d="M2.69,11V4.83a0,0,0,0,0,0,0,1.19,1.19,0,0,1,1.44-.94,2.43,2.43,0,0,0,0,.27.57.57,0,0,0,.57.58h.55a.6.6,0,0,0,.62-.63V3.86h2.9c0,.1,0,.2,0,.3a.57.57,0,0,0,.56.56h.53a.61.61,0,0,0,.65-.65V3.85h.29a1.17,1.17,0,0,1,1.11.82,1,1,0,0,0,.05.16V11a.08.08,0,0,0,0,0,1.15,1.15,0,0,1-.81.89L11,12H3.67l0,0a1.15,1.15,0,0,1-.89-.81Zm4.65.4h3.51a.57.57,0,0,0,.48-.29.66.66,0,0,0,.08-.36V6.26a.45.45,0,0,0,0-.11.56.56,0,0,0-.24-.44.65.65,0,0,0-.41-.11H3.84a.6.6,0,0,0-.4.18.64.64,0,0,0-.17.47v4.5a.37.37,0,0,0,0,.11.57.57,0,0,0,.16.37.64.64,0,0,0,.49.18Z"/><path class="cls-2" d="M5.4,2.69a.36.36,0,0,1,.2.38c0,.35,0,.71,0,1.06a.29.29,0,0,1-.31.31H4.73a.28.28,0,0,1-.29-.3c0-.36,0-.71,0-1.07a.38.38,0,0,1,.21-.38Z"/><path class="cls-2" d="M10.05,2.69a.38.38,0,0,1,.2.38c0,.35,0,.71,0,1.06a.29.29,0,0,1-.3.31H9.38a.29.29,0,0,1-.3-.3c0-.36,0-.71,0-1.07a.37.37,0,0,1,.2-.38Z"/><path class="cls-2" d="M5.6,7.35v.29a.29.29,0,0,1-.29.28H4.72a.27.27,0,0,1-.28-.28,5.8,5.8,0,0,1,0-.59.28.28,0,0,1,.28-.29H5.3a.28.28,0,0,1,.3.29Z"/><path class="cls-2" d="M7.92,7.35v.28a.28.28,0,0,1-.29.29H7a.27.27,0,0,1-.28-.28V7A.27.27,0,0,1,7,6.76h.59a.28.28,0,0,1,.29.29Z"/><path class="cls-2" d="M10.25,7.34c0,.1,0,.2,0,.3a.27.27,0,0,1-.28.28H9.37a.29.29,0,0,1-.29-.28V7a.28.28,0,0,1,.29-.28H10a.27.27,0,0,1,.27.28C10.25,7.14,10.25,7.24,10.25,7.34Z"/><path class="cls-2" d="M5,9.08h.29a.28.28,0,0,1,.29.29V10a.28.28,0,0,1-.29.28H4.73A.28.28,0,0,1,4.44,10a5.42,5.42,0,0,1,0-.57.28.28,0,0,1,.29-.3Z"/><path class="cls-2" d="M7.92,9.67V10a.28.28,0,0,1-.29.29H7.05A.28.28,0,0,1,6.76,10V9.37A.28.28,0,0,1,7,9.08h.59a.28.28,0,0,1,.29.29Z"/><path class="cls-2" d="M10.25,9.67c0,.09,0,.19,0,.29a.27.27,0,0,1-.28.28H9.37A.28.28,0,0,1,9.08,10V9.37a.28.28,0,0,1,.29-.29H10a.27.27,0,0,1,.28.3A2.71,2.71,0,0,1,10.25,9.67Z"/></g></g></svg>