<svg xmlns="http://www.w3.org/2000/svg" viewBox="0 0 14.68 14.68"><defs><style>.cls-1{fill:#52aa00;}.cls-2{fill:#fff;}</style></defs><title>COVERAGE ICON</title><g id="Layer_2" data-name="Layer 2"><g id="Layer_1-2" data-name="Layer 1"><circle class="cls-1" cx="7.34" cy="7.34" r="7.34"/><path class="cls-2" d="M12.63,10l0,0a.26.26,0,0,1-.25.17l-1.26,0H5.43l-3,0a.47.47,0,0,1-.17,0A.25.25,0,0,1,2.1,9.8L3.73,7.54c.17-.24.35-.47.53-.71l.08-.09a.34.34,0,0,1,.29-.1H5.77c.06,0,.14,0,.19,0S6,6.75,6,6.8s.15.29.22.44a.59.59,0,0,1,0,.08l-1.46.56L5,8l.31.24a.09.09,0,0,0,.09,0l1-.49.09,0,.19.34-.26.13,0,0,1.38.89s0,0,.08,0l1.28-1,.06-.05L8.19,7.66l.19-.35.19.07.56.22a.11.11,0,0,0,.11,0l.49-.33,0,0H8.42s0,0,0-.05l.26-.51s0,0,.06,0H10a.39.39,0,0,1,.33.16l1.41,1.85.84,1.15.06.1ZM3.51,9.6H7.89l0,0L6.06,8.43a.09.09,0,0,0-.1,0l-2,1Zm8.17,0v0l-.51-.68a.09.09,0,0,0-.05,0L9.8,8.34s-.06,0-.1,0l-1.18.87-.2.16v0l.32.21h3ZM4.23,7.94l-1,1.33,0,0,1.68-.81Zm5.87-.42-.47.31,1,.41,0,0Zm-5.59,0h0l.78-.29H4.89a.28.28,0,0,0-.27.14A.91.91,0,0,1,4.51,7.53Z"/><path class="cls-2" d="M5.7,4.66A1.57,1.57,0,0,1,7.08,3.14,1.69,1.69,0,0,1,8.84,4a1.39,1.39,0,0,1,.08,1,6,6,0,0,1-.4,1.07c-.29.61-.6,1.21-.94,1.8a.86.86,0,0,1-.1.16.19.19,0,0,1-.28,0l-.09-.12a21.34,21.34,0,0,1-1.2-2.45,3,3,0,0,1-.2-.67C5.71,4.75,5.7,4.69,5.7,4.66Zm2.48,0a.82.82,0,0,0-.84-.8.85.85,0,0,0-.85.8.85.85,0,0,0,.85.8A.82.82,0,0,0,8.18,4.66Z"/></g></g></svg>