<svg xmlns="http://www.w3.org/2000/svg" viewBox="0 0 14.68 14.68"><defs><style>.cls-1{fill:#52aa00;}.cls-2{fill:#fff;}</style></defs><title>Asset 1</title><g id="Layer_2" data-name="Layer 2"><g id="Layer_1-2" data-name="Layer 1"><circle class="cls-1" cx="7.34" cy="7.34" r="7.34"/><path class="cls-2" d="M6.23,5.51c0,.09,0,.17,0,.26V7.64c0,.19-.1.32-.3.32a.28.28,0,0,1-.29-.32c0-.83,0-1.67,0-2.5a.64.64,0,0,1,.65-.6c.65,0,1.31,0,2,0a.66.66,0,0,1,.65.71c0,.77,0,1.55,0,2.32,0,.26-.11.41-.29.39s-.3-.18-.3-.4c0-.59,0-1.18,0-1.77,0-.09,0-.18,0-.27H8.2a2.48,2.48,0,0,0,0,.27v5.35c0,.43-.14.64-.42.64s-.43-.2-.43-.65c0-1,0-1.94,0-2.91,0-.08,0-.17,0-.26H7.22c0,.1,0,.19,0,.28v2.93a1.69,1.69,0,0,1,0,.23.41.41,0,0,1-.42.38.43.43,0,0,1-.42-.4,1.76,1.76,0,0,1,0-.23V5.8a2.83,2.83,0,0,0,0-.29Z"/><path class="cls-2" d="M10.2,5.73v5a1.76,1.76,0,0,1,0,.23.36.36,0,0,1-.36.34A.35.35,0,0,1,9.45,11a5.19,5.19,0,0,1,0-.56V7.9H9.36a2.48,2.48,0,0,0,0,.27v2.68c0,.27-.13.43-.36.44a.36.36,0,0,1-.39-.36c0-.87,0-1.74,0-2.62,0-.05.09-.13.15-.16a.46.46,0,0,0,.34-.43c0-.87,0-1.74,0-2.6a1.29,1.29,0,0,0,0-.25c.44,0,.87,0,1.3,0a.55.55,0,0,1,.51.58c0,.7,0,1.41,0,2.11,0,.19-.06.33-.27.33s-.26-.17-.26-.35V6c0-.09,0-.18,0-.27Z"/><path class="cls-2" d="M5.26,7.9c0,.08,0,.17,0,.26,0,.88,0,1.76,0,2.65a.65.65,0,0,1-.21.42c-.25.18-.54,0-.54-.4V6c0-.09,0-.18,0-.27H4.4a2.11,2.11,0,0,0,0,.25c0,.53,0,1.06,0,1.59,0,.19-.07.35-.28.32a.41.41,0,0,1-.24-.26c0-.76,0-1.51,0-2.26a.56.56,0,0,1,.56-.51h1V7.63c0,.38.22.54.68.52,0,.07,0,.13,0,.19v2.42a.57.57,0,0,1,0,.13c0,.25-.16.4-.38.39a.37.37,0,0,1-.37-.41c0-.41,0-.82,0-1.23V8.12a2.08,2.08,0,0,0,0-.23Z"/><path class="cls-2" d="M2.73,5.94V7.33a.69.69,0,0,1,0,.25,1.81,1.81,0,0,1-.24.24c-.07-.08-.2-.16-.21-.24,0-.28,0-.57,0-.85v-1a.52.52,0,0,1,.53-.57h.86V7.5c0,.43.13.56.59.6v2.25c0,.28-.12.44-.32.44s-.34-.15-.34-.45V8.08c0-.07,0-.15,0-.23H3.5c0,.08,0,.16,0,.24V10.3c0,.08,0,.19,0,.25s-.21.23-.32.22-.22-.14-.3-.25,0-.16,0-.25V6Z"/><path class="cls-2" d="M11.88,5.94a2.83,2.83,0,0,0,0,.29v4.14c0,.27-.12.43-.33.42s-.32-.15-.33-.44V8.12a2.44,2.44,0,0,0,0-.27h-.07c0,.08,0,.16,0,.25v2.16a1.27,1.27,0,0,1,0,.2.32.32,0,0,1-.35.33.31.31,0,0,1-.3-.35V8.11l.14,0A.44.44,0,0,0,11,7.62c0-.81,0-1.61,0-2.43a6.68,6.68,0,0,1,1,0,.44.44,0,0,1,.39.49V7.52c0,.16,0,.3-.23.3S12,7.68,12,7.51V6.18a1.94,1.94,0,0,0,0-.24Z"/><path class="cls-2" d="M7.23,4.25a.67.67,0,0,1-.66-.67.68.68,0,0,1,.69-.68.68.68,0,1,1,0,1.35Z"/><path class="cls-2" d="M5.31,3.4A.58.58,0,0,1,5.89,4a.58.58,0,0,1-.62.58A.6.6,0,0,1,4.69,4,.6.6,0,0,1,5.31,3.4Z"/><path class="cls-2" d="M9.39,4.59A.6.6,0,0,1,8.78,4a.59.59,0,0,1,.59-.59.6.6,0,1,1,0,1.19Z"/><path class="cls-2" d="M11.14,3.89a.54.54,0,0,1,.54.51.54.54,0,0,1-.54.54.54.54,0,0,1-.52-.53A.53.53,0,0,1,11.14,3.89Z"/><path class="cls-2" d="M3.53,4.94a.53.53,0,1,1,0-1.05.53.53,0,0,1,0,1.05Z"/></g></g></svg>