<svg xmlns="http://www.w3.org/2000/svg" viewBox="0 0 14.68 14.68"><defs><style>.cls-1{fill:#52aa00;}.cls-2{fill:#fff;}</style></defs><title>STORE ICON</title><g id="Layer_2" data-name="Layer 2"><g id="Layer_1-2" data-name="Layer 1"><circle class="cls-1" cx="7.34" cy="7.34" r="7.34"/><path class="cls-2" d="M5.7,6.87a1.78,1.78,0,0,0,1.66.9A1.79,1.79,0,0,0,9,6.87a1.71,1.71,0,0,0,.89.77,2.34,2.34,0,0,0,1.18.09v.16c0,1.14,0,2.28,0,3.42a.29.29,0,0,1-.33.33H7.41c-.26,0-.36-.1-.36-.36V9.15c0-.27-.1-.37-.37-.37h-1a.3.3,0,0,0-.34.34V11.3c0,.24-.1.34-.35.34H4c-.24,0-.34-.1-.34-.34V7.73A1.88,1.88,0,0,0,5.7,6.87ZM9.91,9.63V9.09a.28.28,0,0,0-.3-.31H8.51a.28.28,0,0,0-.29.29c0,.37,0,.74,0,1.11a.29.29,0,0,0,.3.3H9.6a.29.29,0,0,0,.31-.32Z"/><path class="cls-2" d="M7.33,3H8.38c.21,0,.31.08.32.29,0,.38,0,.75.05,1.13,0,.54,0,1.08,0,1.62A1.27,1.27,0,0,1,7.5,7.35a1.89,1.89,0,0,1-.82-.1A1.29,1.29,0,0,1,5.91,6c0-.71,0-1.43,0-2.15,0-.16,0-.32,0-.48S6.09,3,6.33,3Z"/><path class="cls-2" d="M5.55,3.9c0,.75,0,1.5-.06,2.26A1.3,1.3,0,0,1,4.28,7.35a2.69,2.69,0,0,1-.57,0,1.22,1.22,0,0,1-1-1.4c.08-.49.12-1,.17-1.49l.12-1.09A.31.31,0,0,1,3.4,3H5.23a.28.28,0,0,1,.32.31c0,.19,0,.37,0,.55Z"/><path class="cls-2" d="M10.37,3h.91a.31.31,0,0,1,.34.3c.08.67.15,1.34.23,2a7.22,7.22,0,0,1,.08.8,1.18,1.18,0,0,1-1.19,1.2,1.51,1.51,0,0,1-1-.25,1.27,1.27,0,0,1-.53-1c0-.89-.06-1.77-.08-2.66,0-.26.11-.38.36-.38Z"/></g></g></svg>